# xmcd
#
# Track frame offsets:
#	150
#	15217
#	38970
#	68811
#	99628
#	140022
#
# Disc length: 2551 seconds
#
# Revision: 1
# Processed by: cddbd v1.5.2PL0 Copyright (c) Steve Scherf et al.
# Submitted via: audiograbber 1.83.01
#
DISCID=4909f506
DTITLE=Stéréopol Feat. Nevada - Dancin' Tonight [CDs Remies)
DYEAR=2002
DGENRE=House
TTITLE0=Dancin' Tonight (Radio Edit)
TTITLE1=Dancin' Tonight (Extended Disco Mix)
TTITLE2=Dancin' Tonight (Love II Infinity Master Mix)
TTITLE3=Dancin' Tonight (Love II Infinity Club Mix)
TTITLE4=Dancin' Tonight (Marcos Bros Remix)
TTITLE5=Pista de Datos
EXTD=
EXTT0=
EXTT1=
EXTT2=
EXTT3=
EXTT4=
EXTT5=
PLAYORDER=
